<svg width="9" height="16" viewBox="0 0 9 16" fill="none" xmlns="http://www.w3.org/2000/svg">
<path d="M4.552 13.2C4.09333 13.2 3.624 13.1627 3.144 13.088C2.66933 13.0133 2.22667 12.9147 1.816 12.792C1.41067 12.6693 1.07733 12.544 0.816 12.416L1.008 10.304C1.36 10.4907 1.728 10.6533 2.112 10.792C2.496 10.9253 2.87733 11.0293 3.256 11.104C3.64 11.1733 4.00533 11.208 4.352 11.208C4.69867 11.208 5 11.1627 5.256 11.072C5.512 10.9813 5.712 10.8373 5.856 10.64C6 10.4427 6.072 10.184 6.072 9.864C6.072 9.576 5.976 9.33867 5.784 9.152C5.59733 8.96533 5.33067 8.80533 4.984 8.672C4.64267 8.53333 4.24267 8.39467 3.784 8.256C3.11733 8.064 2.54933 7.84 2.08 7.584C1.616 7.328 1.26133 7 1.016 6.6C0.770667 6.2 0.648 5.69333 0.648 5.08C0.648 4.44 0.786667 3.87733 1.064 3.392C1.34133 2.90133 1.76267 2.51733 2.328 2.24C2.89333 1.96267 3.60533 1.824 4.464 1.824C4.79467 1.824 5.13067 1.84533 5.472 1.888C5.81867 1.93067 6.152 1.98933 6.472 2.064C6.792 2.13867 7.09067 2.22133 7.368 2.312C7.64533 2.40267 7.88533 2.49867 8.088 2.6L7.904 4.744C7.57867 4.54133 7.24 4.376 6.888 4.248C6.536 4.11467 6.192 4.016 5.856 3.952C5.52533 3.888 5.22133 3.856 4.944 3.856C4.64 3.856 4.36267 3.90133 4.112 3.992C3.86133 4.07733 3.66133 4.21067 3.512 4.392C3.368 4.57333 3.296 4.808 3.296 5.096C3.296 5.35733 3.36533 5.57333 3.504 5.744C3.64267 5.90933 3.856 6.056 4.144 6.184C4.43733 6.312 4.816 6.448 5.28 6.592C6.144 6.85333 6.824 7.128 7.32 7.416C7.82133 7.69867 8.17867 8.03733 8.392 8.432C8.60533 8.82133 8.712 9.30133 8.712 9.872C8.712 10.544 8.56533 11.1307 8.272 11.632C7.984 12.128 7.53333 12.5147 6.92 12.792C6.30667 13.064 5.51733 13.2 4.552 13.2ZM3.816 15.192C3.816 14.6267 3.816 14.0827 3.816 13.56C3.816 13.0427 3.816 12.5307 3.816 12.024H5.592C5.592 12.5307 5.592 13.0427 5.592 13.56C5.592 14.0827 5.592 14.6267 5.592 15.192H3.816ZM3.816 2.904C3.816 2.46133 3.816 2.01333 3.816 1.56C3.816 1.10133 3.816 0.632 3.816 0.151999H5.592C5.592 0.632 5.592 1.10133 5.592 1.56C5.592 2.01333 5.592 2.46133 5.592 2.904H3.816Z" fill="#DDDDDD"/>
</svg>
